<svg width="32" height="42" viewBox="0 0 32 42" fill="none" xmlns="http://www.w3.org/2000/svg">
<path d="M21.4851 39.8285H15.3414C14.5834 39.8285 13.9666 39.2117 13.9666 38.4537V34.0022H19.8565C20.1801 34.0022 20.4423 33.7399 20.4423 33.4164C20.4423 33.0929 20.1801 32.8306 19.8565 32.8306H13.37C13.0681 32.8306 12.8184 32.5945 12.8019 32.2954L11.5525 8.00457C11.5475 7.91045 11.5201 7.81883 11.4723 7.7376L9.60296 4.56045H27.8977L26.2687 7.32911C26.1046 7.60795 26.1977 7.967 26.4765 8.13102C26.7555 8.29512 27.1143 8.2021 27.2784 7.92318L29.427 4.27169C29.48 4.18164 29.5079 4.07909 29.5079 3.97466V2.00876C29.5079 1.45249 29.0553 1.00003 28.4991 1.00003H9.00163C8.44537 1.00003 7.99283 1.45249 7.99283 2.00876V3.97458C7.99283 4.07901 8.02071 4.18156 8.07374 4.27162L10.3898 8.20795L11.632 32.3579C11.6719 33.0787 12.1481 33.6757 12.795 33.9026V38.4536C12.795 39.8577 13.9373 41 15.3414 41H21.4851C21.8087 41 22.0709 40.7377 22.0709 40.4142C22.0709 40.0907 21.8086 39.8285 21.4851 39.8285ZM28.3363 2.17161V3.38879H9.1644V2.17161H28.3363Z" fill="black" stroke="black" stroke-width="0.5"/>
<path d="M31.1895 9.79083C30.9471 9.53199 30.6045 9.38351 30.2497 9.38351H21.4063C21.0515 9.38351 20.709 9.53199 20.4664 9.79091C20.2239 10.0498 20.098 10.4014 20.1211 10.7555L21.2169 27.5167C21.238 27.8395 21.516 28.0845 21.8397 28.063C22.1625 28.042 22.4071 27.7631 22.386 27.4403L21.4783 13.5548H30.1778L28.9138 32.8895C28.8709 33.5446 28.3231 34.0578 27.6666 34.0578H23.9893C23.3328 34.0578 22.785 33.5446 22.7422 32.8895L22.5491 29.9367C22.528 29.6138 22.2469 29.3688 21.9263 29.3904C21.6034 29.4114 21.3589 29.6903 21.38 30.0131L21.573 32.9659C21.6339 33.8969 22.2215 34.6793 23.0321 35.0305V39.2117C23.0321 40.1978 23.8343 41 24.8204 41H26.8355C27.8216 41 28.6238 40.1978 28.6238 39.2117V35.0305C29.4345 34.6792 30.022 33.8969 30.0829 32.9659L31.535 10.7553C31.558 10.4012 31.4321 10.0497 31.1895 9.79083ZM27.4522 39.2117C27.4522 39.5517 27.1756 39.8284 26.8355 39.8284H24.8204C24.4803 39.8284 24.2037 39.5517 24.2037 39.2117V35.2293H27.4522V39.2117ZM21.4017 12.3831L21.2903 10.679C21.2876 10.6373 21.3057 10.6086 21.3215 10.5918C21.3372 10.575 21.3647 10.555 21.4063 10.555H30.2497C30.2914 10.555 30.3189 10.575 30.3346 10.5918C30.3503 10.6086 30.3686 10.6373 30.3658 10.679L30.2543 12.3831H21.4017Z" fill="black" stroke="black" stroke-width="0.5"/>
<path d="M9.16442 27.8286V23.184C9.16442 22.5451 8.64471 22.0253 8.00589 22.0253H7.95441V21.0387C7.95441 20.7152 7.69222 20.4529 7.36863 20.4529C7.04504 20.4529 6.78284 20.7152 6.78284 21.0387V22.0253H3.65278V18.1573C4.97939 17.5599 6.04685 16.5164 6.67911 15.2276C6.74761 15.7199 6.78276 16.2187 6.78276 16.7227V18.5423C6.78276 18.8658 7.04496 19.1281 7.36855 19.1281C7.69214 19.1281 7.95434 18.8658 7.95434 18.5423V16.7227C7.95434 15.0168 7.59857 13.3632 6.89703 11.8078C6.70661 11.3858 6.31921 11.0956 5.8605 11.0316C5.40178 10.9673 4.94979 11.1405 4.65112 11.4942L3.79922 12.5029C2.94929 13.5092 2.4812 14.7888 2.4812 16.1058V22.0254H2.42981C1.79091 22.0254 1.2712 22.5451 1.2712 23.184V27.8287C0.800224 28.0001 0.462419 28.451 0.462419 28.9806V31.098C0.462419 31.0985 0.462341 31.099 0.462341 31.0995C0.462341 31.1 0.462419 31.1005 0.462419 31.101V33.3953C0.462419 33.7188 0.724618 33.981 1.04821 33.981C1.3718 33.981 1.634 33.7188 1.634 33.3953V31.6852H8.80178V38.2354C8.80178 39.1137 8.08719 39.8283 7.20882 39.8283H3.22679C2.3485 39.8283 1.63392 39.1137 1.63392 38.2354V35.8916C1.63392 35.5681 1.37172 35.3059 1.04813 35.3059C0.72454 35.3059 0.462341 35.5681 0.462341 35.8916V38.2354C0.462341 39.7597 1.70249 40.9999 3.22679 40.9999H7.20875C8.73312 40.9999 9.97328 39.7597 9.97328 38.2354V28.9806C9.97328 28.451 9.63539 28.0001 9.16442 27.8286ZM4.69423 13.2588L5.54612 12.2501C5.59845 12.1883 5.66414 12.1869 5.6985 12.1918C5.73295 12.1967 5.79575 12.2157 5.8291 12.2896C5.94626 12.5493 6.05256 12.8121 6.14823 13.0776L5.99538 13.6994C5.66906 15.0275 4.81451 16.1559 3.6527 16.8386V16.1057C3.65278 15.0651 4.02268 14.054 4.69423 13.2588ZM2.44277 23.1969H7.99284V27.7537H2.44277V23.1969ZM1.634 30.5137V28.9806C1.634 28.9501 1.65868 28.9254 1.68914 28.9254H1.85699H8.57863H8.74648C8.77694 28.9254 8.8017 28.9501 8.8017 28.9806V30.5137H1.634Z" fill="black" stroke="black" stroke-width="0.5"/>
</svg>
